# Blender v2.73 (sub 0) OBJ File: 'gate.blend'
# www.blender.org
o Cube_Cube.001
v -1.000000 -1.069231 0.286595
v -1.000000 -1.069231 -0.286595
v 1.000000 -1.069231 -0.286595
v 1.000000 -1.069231 0.286595
v 1.000000 -0.930769 -0.286595
v 1.000000 -0.930769 0.286595
v 1.129049 -1.000000 -0.286595
v 1.129049 -1.000000 0.286595
v 1.129049 -0.861538 -0.286595
v 1.129049 -0.861538 0.286595
v 1.000000 0.922279 -0.286595
v 1.000000 0.922279 0.286595
v 1.129049 0.922279 -0.286595
v 1.129049 0.922279 0.286595
v 1.000000 1.077721 -0.286595
v 1.000000 1.077721 0.286595
v 1.129049 1.000000 -0.286595
v 1.129049 1.000000 0.286595
v -1.000000 0.922279 -0.286595
v -1.000000 0.922279 0.286595
v -1.000000 1.077721 -0.286595
v -1.000000 1.077721 0.286595
v -1.120000 0.922279 -0.286595
v -1.120000 0.922279 0.286595
v -1.120000 1.000000 -0.286595
v -1.120000 1.000000 0.286595
v -1.000000 -0.933730 -0.286595
v -1.000000 -0.933730 0.286595
v -1.120000 -0.933730 -0.286595
v -1.120000 -0.933730 0.286595
v -1.120000 -1.000000 -0.286595
v -1.120000 -1.000000 0.286595
vt 0.625000 0.500006
vt 0.625000 0.944636
vt 0.500000 0.944636
vt 0.000000 0.528585
vt 0.000000 0.500006
vt 0.125000 0.500006
vt 0.000000 0.973212
vt 0.125000 0.528585
vt 0.438653 0.026678
vt 0.468202 0.026678
vt 0.468202 0.471316
vt 0.375000 0.530789
vt 0.375000 0.500006
vt 0.500000 0.500006
vt 0.438007 0.471316
vt 0.453105 0.500006
vt 0.513496 0.500006
vt 0.498398 0.471316
vt 0.902506 0.471316
vt 0.483300 0.500006
vt 0.936405 0.471316
vt 0.919455 0.500006
vt 0.422909 0.500006
vt 0.033898 0.500006
vt 0.033898 0.471316
vt 0.500000 0.530789
vt 0.500000 0.927366
vt 0.375000 0.927366
vt 0.875000 0.911974
vt 0.875000 0.500006
vt 1.000000 0.500006
vt 0.250000 0.500006
vt 0.016949 0.500006
vt 0.375000 0.944645
vt 0.000000 0.471316
vt 0.000000 0.026678
vt 0.033898 0.026678
vt 0.016949 0.000000
vt 0.902506 0.026678
vt 0.936405 0.026678
vt 0.250000 0.528559
vt 0.250000 0.973184
vt 0.125000 0.973184
vt 0.750000 0.500006
vt 0.250000 0.517285
vt 0.902506 0.000000
vt 0.919455 0.000000
vt 0.250000 0.999997
vt 0.125000 0.999997
vt 0.497752 0.026678
vt 0.497752 0.000000
vt 0.033898 0.000000
vt 0.438653 0.000000
vt 0.375000 0.517285
vt 0.375000 0.929912
vt 0.250000 0.929912
vt 0.750000 0.912633
vt 0.000000 1.000000
vt 0.250000 0.944645
vt 0.483300 0.000000
vt 0.453105 0.000000
vt 0.902506 0.500006
vt 1.000000 0.911974
vt 0.750000 0.944633
vt 0.875000 0.912633
vn -0.001500 1.000000 0.000000
vn 0.472700 -0.881200 0.000000
vn 0.000000 -1.000000 0.000000
vn 0.000000 0.000000 1.000000
vn 1.000000 0.000000 0.000000
vn 0.000000 0.000000 -1.000000
vn -1.000000 0.000000 0.000000
vn 0.515900 0.856600 0.000000
vn 0.000000 1.000000 0.000000
vn -0.543600 0.839300 0.000000
vn -0.499700 -0.866200 0.000000
s off
f 5/1/1 27/2/1 28/3/1
f 3/4/2 7/5/2 8/6/2
f 2/7/3 3/4/3 4/8/3
f 28/9/4 1/10/4 4/11/4
f 10/12/5 8/13/5 7/14/5
f 6/15/4 4/11/4 8/16/4
f 9/17/6 5/18/6 11/19/6
f 5/18/6 9/17/6 7/20/6
f 11/19/6 15/21/6 17/22/6
f 10/23/4 14/24/4 12/25/4
f 9/26/5 13/27/5 14/28/5
f 6/29/7 12/30/7 11/31/7
f 16/8/8 18/6/8 17/32/8
f 12/25/4 14/24/4 18/33/4
f 13/27/5 17/3/5 18/34/5
f 16/35/4 22/36/4 20/37/4
f 20/37/4 22/36/4 26/38/4
f 11/19/6 19/39/6 21/40/6
f 15/41/9 21/42/9 22/43/9
f 12/2/3 20/1/3 19/44/3
f 24/45/7 26/32/7 25/13/7
f 19/39/6 23/46/6 25/47/6
f 21/42/10 25/48/10 26/49/10
f 19/39/6 27/50/6 29/51/6
f 24/52/4 30/53/4 28/9/4
f 23/54/7 29/55/7 30/56/7
f 20/57/5 28/44/5 27/30/5
f 1/43/11 32/49/11 31/58/11
f 29/55/7 31/34/7 32/59/7
f 27/50/6 2/10/6 31/60/6
f 27/50/6 5/18/6 3/11/6
f 28/9/4 30/53/4 32/61/4
f 6/14/1 5/1/1 28/3/1
f 4/8/2 3/4/2 8/6/2
f 1/43/3 2/7/3 4/8/3
f 6/15/4 28/9/4 4/11/4
f 9/26/5 10/12/5 7/14/5
f 10/23/4 6/15/4 8/16/4
f 13/62/6 9/17/6 11/19/6
f 3/11/6 5/18/6 7/20/6
f 13/62/6 11/19/6 17/22/6
f 6/15/4 10/23/4 12/25/4
f 10/12/5 9/26/5 14/28/5
f 5/63/7 6/29/7 11/31/7
f 15/41/8 16/8/8 17/32/8
f 16/35/4 12/25/4 18/33/4
f 14/28/5 13/27/5 18/34/5
f 12/25/4 16/35/4 20/37/4
f 24/52/4 20/37/4 26/38/4
f 15/21/6 11/19/6 21/40/6
f 16/8/9 15/41/9 22/43/9
f 11/64/3 12/2/3 19/44/3
f 23/54/7 24/45/7 25/13/7
f 21/40/6 19/39/6 25/47/6
f 22/43/10 21/42/10 26/49/10
f 23/46/6 19/39/6 29/51/6
f 20/37/4 24/52/4 28/9/4
f 24/45/7 23/54/7 30/56/7
f 19/65/5 20/57/5 27/30/5
f 2/7/11 1/43/11 31/58/11
f 30/56/7 29/55/7 32/59/7
f 29/51/6 27/50/6 31/60/6
f 2/10/6 27/50/6 3/11/6
f 1/10/4 28/9/4 32/61/4
