<?xml version="1.0" encoding="UTF-8" standalone="no"?>
<!-- Created with Inkscape (http://www.inkscape.org/) -->

<svg
   xmlns:dc="http://purl.org/dc/elements/1.1/"
   xmlns:cc="http://creativecommons.org/ns#"
   xmlns:rdf="http://www.w3.org/1999/02/22-rdf-syntax-ns#"
   xmlns:svg="http://www.w3.org/2000/svg"
   xmlns="http://www.w3.org/2000/svg"
   xmlns:sodipodi="http://sodipodi.sourceforge.net/DTD/sodipodi-0.dtd"
   xmlns:inkscape="http://www.inkscape.org/namespaces/inkscape"
   width="512"
   height="512"
   viewBox="0 0 512.00001 512.00001"
   id="svg4158"
   version="1.1"
   inkscape:version="0.91 r13725"
   sodipodi:docname="pointer_diffuse.svg">
  <defs
     id="defs4160" />
  <sodipodi:namedview
     id="base"
     pagecolor="#ffffff"
     bordercolor="#666666"
     borderopacity="1.0"
     inkscape:pageopacity="0.0"
     inkscape:pageshadow="2"
     inkscape:zoom="0.98994949"
     inkscape:cx="259.37704"
     inkscape:cy="240.66591"
     inkscape:document-units="px"
     inkscape:current-layer="layer1"
     showgrid="false"
     units="px"
     inkscape:window-width="1499"
     inkscape:window-height="1001"
     inkscape:window-x="405"
     inkscape:window-y="0"
     inkscape:window-maximized="0" />
  <metadata
     id="metadata4163">
    <rdf:RDF>
      <cc:Work
         rdf:about="">
        <dc:format>image/svg+xml</dc:format>
        <dc:type
           rdf:resource="http://purl.org/dc/dcmitype/StillImage" />
        <dc:title></dc:title>
      </cc:Work>
    </rdf:RDF>
  </metadata>
  <g
     inkscape:label="Layer 1"
     inkscape:groupmode="layer"
     id="layer1"
     transform="translate(0,-540.36216)">
    <rect
       style="fill:#353c50;fill-opacity:1;stroke:#000000;stroke-width:0.92398357;stroke-linejoin:miter;stroke-miterlimit:4;stroke-dasharray:none;stroke-opacity:1"
       id="rect4706"
       width="511.07602"
       height="511.07602"
       x="0.46199179"
       y="540.8241" />
    <path
       style="fill:#c32b00;fill-opacity:1;fill-rule:evenodd;stroke:#000000;stroke-width:4;stroke-linecap:butt;stroke-linejoin:miter;stroke-miterlimit:4;stroke-dasharray:none;stroke-opacity:1"
       d="m 164.65486,746.28594 191.92899,1.01015 -98.99496,271.73101 z"
       id="path4708"
       inkscape:connector-curvature="0"
       sodipodi:nodetypes="cccc" />
    <rect
       style="fill:#c32b00;fill-opacity:1;stroke:#000000;stroke-width:4.21475172;stroke-linejoin:miter;stroke-miterlimit:4;stroke-dasharray:none;stroke-opacity:1"
       id="rect4710"
       width="190.70407"
       height="158.3792"
       x="163.75209"
       y="568.60645" />
    <path
       sodipodi:type="spiral"
       style="fill:none;fill-rule:evenodd;stroke:#000000;stroke-width:1px;stroke-linecap:butt;stroke-linejoin:miter;stroke-opacity:1"
       id="path4712"
       sodipodi:cx="257.5889"
       sodipodi:cy="1006.9053"
       sodipodi:expansion="1"
       sodipodi:revolution="40"
       sodipodi:radius="342.75296"
       sodipodi:argument="-252.33554"
       sodipodi:t0="0"
       d="m 257.5889,1006.9053 c 0.68754,-1.0902 1.80875,0.3889 1.81195,1.1427 0.009,2.0428 -2.41177,2.9197 -4.09745,2.4812 -3.01529,-0.7844 -4.15238,-4.3372 -3.15036,-7.0522 1.4705,-3.9843 6.28595,-5.41397 10.00685,-3.81954 4.95937,2.12514 6.68747,8.24264 4.48877,12.96154 -2.76683,5.9383 -10.20305,7.967 -15.91625,5.158 -6.91945,-3.4021 -9.24997,-12.1655 -5.82718,-18.87096 4.03363,-7.90214 14.12925,-10.53514 21.82565,-6.49639 8.88581,4.6629 11.82177,16.09385 7.16559,24.78035 -5.29064,9.8702 -18.05905,13.1094 -27.73506,7.8348 -10.85502,-5.9173 -14.3978,-20.0247 -8.50399,-30.68976 6.54324,-11.84025 21.99066,-15.68674 33.64446,-9.1732 12.82576,7.16858 16.97611,23.95686 9.8424,36.59916 -7.79347,13.8115 -25.92331,18.2658 -39.55386,10.5116 -14.79742,-8.418 -19.55579,-27.8899 -11.18081,-42.50855 9.04229,-15.78348 29.85663,-20.84598 45.46326,-11.85002 16.76965,9.66634 22.13635,31.82347 12.51922,48.41797 -10.2902,17.7559 -33.79039,23.4269 -51.37266,13.1884 -18.74228,-10.9139 -24.71751,-35.7574 -13.85763,-54.32734 11.5375,-19.7287 37.72446,-26.00826 57.28206,-14.52684 20.71518,12.16097 27.29909,39.69158 15.19605,60.23678 -12.78435,21.7017 -41.65877,28.59 -63.19148,15.8652 -22.68828,-13.4076 -29.88098,-43.6259 -16.53445,-66.14614 14.03088,-23.6749 45.59324,-31.17203 69.10088,-17.20365 24.66155,14.65404 32.46313,47.56049 17.87286,72.05559 -15.27715,25.6482 -49.52784,33.7543 -75.01028,18.542 -26.63493,-15.9002 -35.04546,-51.4951 -19.21127,-77.96493 16.52324,-27.62167 53.46255,-36.33668 80.91968,-19.88047 28.60841,17.14621 37.62793,55.4299 20.54968,83.8744 -17.76917,29.5952 -57.39734,38.9192 -86.82908,21.2189 -30.58197,-18.3921 -40.21053,-59.3648 -21.88809,-89.78382 19.01498,-31.56877 61.3322,-41.50187 92.73848,-22.55729 32.55559,19.63783 42.79322,63.29961 23.2265,95.69321 -20.26068,33.5424 -65.26711,44.0846 -98.64789,23.8957 -34.52925,-20.8835 -45.37599,-67.2346 -24.5649,-101.60262 21.50631,-35.5161 69.20208,-46.6674 104.55729,-25.23411 36.50296,22.1291 47.95883,71.16953 25.90331,107.51203 -22.75186,37.4898 -73.13708,49.2502 -110.46669,26.5725 -38.47671,-23.3746 -50.54172,-75.1046 -27.24172,-113.42141 23.99736,-39.4636 77.07211,-51.83319 116.37609,-27.91093 40.45049,24.62009 53.12467,79.03964 28.58013,119.33084 -25.24281,41.4373 -81.00718,54.4161 -122.28549,29.2493 -42.4243,-25.8655 -55.70766,-82.9747 -29.91854,-125.2402 26.48821,-43.41121 84.94227,-56.99917 128.19489,-30.58775 44.39813,27.1109 58.29068,86.90985 31.25695,131.14955 -27.73357,45.3851 -88.87738,59.5823 -134.1043,31.9262 -46.37196,-28.3562 -60.87373,-90.84495 -32.59535,-137.059 28.97891,-47.3589 92.81251,-62.16527 140.0137,-33.26456 48.34583,29.60157 63.45681,94.78006 33.93376,142.96836 -30.22421,49.3328 -96.74766,64.7484 -145.9231,34.603 -50.31971,-30.8468 -66.03992,-98.71523 -35.27217,-148.87779 31.46949,-51.30666 100.68282,-67.33149 151.8325,-35.94138 52.29361,32.09212 68.62305,102.65037 36.61058,154.78717 -32.71475,53.2806 -104.618,69.9147 -157.7419,37.2798 -54.26751,-33.3373 -71.2062,-106.58557 -37.94899,-160.69658 33.95998,-55.25447 108.55319,-72.49778 163.6513,-38.6182 56.24143,34.5826 73.78937,110.52078 39.28741,166.60598 -35.20521,57.2284 -112.48839,75.081 -169.56072,39.9566 -58.21535,-35.8278 -76.37254,-114.45596 -40.62581,-172.51538 36.45042,-59.20232 116.4236,-77.66414 175.47012,-41.29501 60.18929,37.07301 78.95574,118.39119 41.96422,178.42479 -37.6956,61.1763 -120.35882,80.2474 -181.37952,42.6334 -62.16323,-38.3181 -81.53895,-122.32638 -43.30263,-184.33417 38.94078,-63.15021 124.29404,-82.83056 187.28892,-43.97183 64.13719,39.56336 84.12217,126.2617 44.64104,190.2436 -40.18594,65.1242 -128.22927,85.4138 -193.19832,45.3103 -66.11114,-40.8086 -86.705396,-130.19693 -45.97945,-196.15306 41.4311,-67.09813 132.16451,-87.99702 199.10772,-46.64865 68.08511,42.05366 89.28864,134.13211 47.31786,202.06241 -42.67624,69.0721 -136.09976,90.5803 -205.01713,47.9871 -70.05907,-43.2988 -91.871876,-138.06741 -48.65626,-207.97186 43.92138,-71.04606 140.03501,-93.1635 210.92653,-49.32547 72.03304,44.54394 94.45513,142.00263 49.99467,213.88123 -45.1665,73.02 -143.97026,95.7468 -216.83593,50.6639 -74.007022,-45.7891 -97.038397,-145.93791 -51.33308,-219.79065 46.41162,-74.99402 147.90552,-98.33003 222.74533,-52.00229 75.98101,47.03418 99.62167,149.87314 52.67149,225.70004 -47.65673,76.968 -151.84078,100.9133 -228.65473,53.3407 -77.954994,-48.2793 -102.204945,-153.80843 -54.0099,-231.60944 48.90184,-78.94199 155.77605,-103.49659 234.56413,-54.67911 79.92899,49.52439 104.78823,157.74365 55.34831,237.51885 -50.14693,80.916 -159.71132,106.0799 -240.47354,56.0175 C 81.98056,1104.7159 56.512023,993.80644 107.19682,912.05716 158.58885,829.16719 270.84342,803.394 353.57976,854.70124 c 83.87697,52.01458 109.9548,165.61426 58.02512,249.33766 -52.63712,84.864 -167.58187,111.2464 -252.29234,58.6943 C 73.461571,1109.4736 46.774441,993.1837 99.949007,907.48617 153.83121,820.6482 271.46616,793.65642 358.15075,847.45343 c 87.82497,54.50474 115.1214,173.48477 60.70194,261.15647 -55.12728,88.8119 -175.45244,116.413 -264.11114,61.3711 C 64.942572,1114.2312 37.036842,992.56094 92.701196,902.91518 149.07355,812.1292 272.08892,783.91882 362.72174,840.20562 c 91.77299,56.99489 120.28802,181.35538 63.37876,272.97528 -57.61742,92.76 -183.32301,121.5796 -275.92994,64.0479 C 56.423563,1118.9889 27.299227,991.93817 85.453385,898.34418 144.31588,803.61019 272.71169,774.1812 367.29274,832.95781 c 95.721,59.48503 125.45464,189.22599 66.05558,284.79409 -60.10756,96.708 -191.1936,126.7463 -287.74876,66.7247 C 47.904546,1123.7466 17.5616,991.3154 78.205574,893.77319 139.55819,795.09117 273.33447,764.44357 371.86373,825.71 c 99.66903,61.97515 130.62128,197.0965 68.7324,296.6129 -62.59768,100.656 -199.06419,131.9129 -299.56756,69.4016 C 39.385521,1128.5042 7.8239601,990.69261 70.957763,889.2022 134.8005,786.57214 273.95725,754.70592 376.43472,818.46219 480.05179,882.92745 512.22266,1023.4293 447.84394,1126.8938 382.75615,1231.4979 240.90915,1263.9734 136.45758,1198.9723 30.86649,1133.262 -1.91369,990.06982 63.709952,884.6312 130.04279,778.05311 274.58004,744.96827 381.00572,811.21438 c 107.5651,66.95535 140.95459,212.83772 74.08603,320.25042 -67.57788,108.5522 -214.8054,142.2463 -323.20517,74.7553 C 22.347453,1138.0197 -11.651349,989.44703 56.462141,880.06021 125.28507,769.53407 275.20284,735.23061 385.57671,803.96656 497.08986,873.41201 531.69798,1024.6749 462.33956,1136.0358 392.27159,1248.536 239.66355,1283.4488 127.31559,1213.4679 13.828411,1142.7774 -21.389017,988.82423 49.21433,875.48922 120.52734,761.01503 275.82565,725.49294 390.1477,796.71875 505.60891,868.65428 541.43565,1025.2977 469.58737,1140.6068 397.02932,1257.055 239.04075,1293.1864 122.7446,1220.7157 5.3093646,1147.5351 -31.126692,988.20142 41.966519,870.91822 115.76961,752.49598 276.44845,715.75526 394.7187,789.47094 514.12796,863.89655 551.17333,1025.9205 476.83518,1145.1778 401.78706,1265.5741 238.41794,1302.9241 118.1736,1227.9635 -3.2096864,1152.2929 -40.864375,987.57861 34.718708,866.34723 111.01186,743.97693 277.07126,706.01758 399.28969,782.22313 522.64701,859.1388 560.91101,1026.5433 484.08299,1149.7488 406.5448,1274.0931 237.79512,1312.6618 113.60261,1235.2113 -11.728741,1157.0506 -50.602063,986.95579 27.470897,861.77624 106.25412,735.45787 277.69408,696.27989 403.86068,774.97532 531.16607,854.38105 570.6487,1027.1662 491.3308,1154.3198 411.30256,1282.6122 237.17231,1322.3995 109.03162,1242.4591 -20.247799,1161.8084 -60.339757,986.33298 20.223086,857.20524 101.49636,726.93881 278.3169,686.54219 408.43168,767.72751 539.68513,849.6233 580.3864,1027.789 498.57862,1158.8908 416.06031,1291.1313 236.54948,1332.1372 104.46062,1249.7069 -28.766861,1166.5661 -70.077455,985.71015 12.975275,852.63425 96.738603,718.41975 278.93972,676.80449 413.00267,760.4797 c 135.20152,84.38584 177.12143,267.9321 92.82376,402.9821 -85.00836,136.1885 -269.89977,178.4131 -405.936801,93.493 C -37.285925,1171.3239 -79.815159,985.08733 5.7274637,848.06326 91.980839,709.90068 279.56255,667.06679 417.57366,753.23189 556.72325,840.10777 599.86181,1029.0346 513.07424,1168.0328 425.57584,1308.1694 235.30383,1351.6126 95.318635,1264.2026 -45.804992,1176.0817 -89.552867,984.4645 -1.5203474,843.49226 87.22307,701.38162 280.18538,657.32908 422.14466,745.98408 565.24232,835.35 609.59952,1029.6575 520.32205,1172.6038 430.33361,1316.6885 234.681,1361.3503 90.747642,1271.4504 -54.324061,1180.8394 -99.290578,983.84167 -8.7681584,838.92127 82.465297,692.86255 280.80821,647.59137 426.71565,738.73626 573.76139,830.59223 619.33723,1030.2803 527.56986,1177.1748 435.09139,1325.2075 234.05817,1371.088 86.176649,1278.6982 -62.843133,1185.5972 -109.02829,983.21884 -16.015969,834.35028 77.707521,684.34347 281.43104,637.85365 431.28664,731.48845 582.28046,825.83445 629.07495,1030.9031 534.81767,1181.7458 439.84916,1333.7266 233.43534,1380.8258 81.605655,1285.946 -71.362207,1190.355 -118.76601,982.596 -23.263781,829.77928 72.949741,675.8244 282.05388,628.11593 435.85764,724.24064 590.79954,821.07667 638.81267,1031.526 542.06548,1186.3168 444.60695,1342.2457 232.8125,1390.5635 77.034662,1293.1938 -79.881282,1195.1128 -128.50373,981.97317 -30.511592,825.20829 68.191958,667.30532 282.67671,618.37821 440.42863,716.99283"
       transform="matrix(0.99920465,0,0,2.3557392,-0.80697842,-1356.1451)" />
  </g>
</svg>
