# Blender v2.73 (sub 0) OBJ File: 'shippy.blend'
# www.blender.org
o Cube.003_Cube.006
v 0.035101 -0.110721 -0.659163
v 0.056867 -0.099375 -0.572103
v 0.034936 -0.004795 -0.577435
v 0.056702 0.006551 -0.466427
v 0.000101 -0.099464 -0.713578
v 0.000101 -0.099464 -0.532571
v 0.147345 -0.007079 -0.374689
v 0.134091 -0.059262 -0.515302
v 0.234940 -0.081042 -0.559336
v 0.242955 -0.049220 -0.377847
v 0.151746 0.010253 -0.399131
v 0.136806 -0.048571 -0.519525
v 0.237655 -0.070352 -0.563560
v 0.240835 -0.029677 -0.400886
v 0.151558 0.009509 -0.329990
v 0.331164 -0.038970 -0.300373
v 0.154886 0.022615 -0.335168
v 0.334493 -0.025864 -0.305550
v 0.154760 -0.099222 -0.440921
v 0.154760 -0.099222 -0.257843
v 0.049297 0.047527 -0.416375
v 0.049297 0.066104 -0.214973
v -0.000511 0.047449 -0.416375
v -0.001007 -0.099465 -0.570207
v -0.000511 0.066027 -0.214973
v -0.001007 -0.099465 -0.257843
v 0.164335 -0.127581 0.417798
v 0.164335 -0.127581 0.108479
v 0.263478 -0.163657 0.108479
v 0.263478 -0.163657 0.417798
v 0.270106 0.163093 0.417798
v 0.270106 0.163093 0.108479
v 0.302694 0.151234 0.108479
v 0.302694 0.151234 0.417798
v 0.110930 -0.057603 0.172294
v 0.125771 -0.033150 -0.134840
v 0.332956 -0.082099 -0.135736
v 0.483135 -0.133093 0.129829
v 0.119946 -0.004165 0.141734
v 0.131346 -0.009576 -0.133466
v 0.338532 -0.058525 -0.134362
v 0.478754 -0.076751 0.103806
v 0.161923 -0.065289 0.269926
v 0.530923 -0.181189 0.282939
v 0.168759 -0.036389 0.271610
v 0.537758 -0.152289 0.284623
v 0.107033 -0.130374 0.207238
v 0.127949 0.039358 -0.206221
v 0.093863 -0.144780 0.058304
v 0.093862 -0.143681 -0.244647
v 0.000172 -0.144926 0.058304
v 0.000149 -0.130541 0.207238
v 0.000170 -0.143827 -0.244647
v -0.000115 0.039158 -0.206221
v 0.079733 0.026128 -0.154660
v 0.095819 -0.145005 0.306973
v 0.069594 0.209965 -0.044184
v 0.069691 0.147600 0.213473
v -0.000381 0.209855 -0.044184
v -0.000095 0.026003 -0.154660
v -0.000284 0.147491 0.213473
v 0.000172 -0.145154 0.306973
v -0.035101 -0.110721 -0.659163
v -0.056867 -0.099375 -0.572103
v -0.034936 -0.004795 -0.577435
v -0.056702 0.006551 -0.466427
v -0.000000 -0.004850 -0.631851
v -0.000101 -0.099464 -0.713578
v -0.000000 0.006462 -0.484174
v -0.000101 -0.099464 -0.532571
v -0.147345 -0.007079 -0.374689
v -0.134091 -0.059262 -0.515302
v -0.234940 -0.081042 -0.559336
v -0.242956 -0.049220 -0.377847
v -0.151747 0.010253 -0.399131
v -0.136806 -0.048571 -0.519525
v -0.237656 -0.070352 -0.563560
v -0.240836 -0.029677 -0.400886
v -0.151558 0.009509 -0.329990
v -0.331165 -0.038970 -0.300373
v -0.154886 0.022615 -0.335168
v -0.334493 -0.025864 -0.305550
v -0.154761 -0.099222 -0.440921
v -0.154761 -0.099222 -0.257843
v -0.049297 0.047527 -0.416375
v -0.049297 0.066104 -0.214973
v 0.000511 0.047449 -0.416375
v 0.001007 -0.099465 -0.570207
v 0.000511 0.066027 -0.214973
v 0.001007 -0.099465 -0.257843
v -0.164336 -0.127581 0.417798
v -0.164336 -0.127581 0.108479
v -0.263478 -0.163657 0.108479
v -0.263478 -0.163657 0.417798
v -0.270106 0.163093 0.417798
v -0.270106 0.163093 0.108479
v -0.302695 0.151234 0.108479
v -0.302695 0.151234 0.417798
v -0.110931 -0.057603 0.172294
v -0.125771 -0.033150 -0.134840
v -0.332957 -0.082099 -0.135736
v -0.483135 -0.133093 0.129829
v -0.119946 -0.004165 0.141734
v -0.131346 -0.009576 -0.133466
v -0.338532 -0.058525 -0.134362
v -0.478754 -0.076751 0.103806
v -0.161924 -0.065289 0.269926
v -0.530924 -0.181189 0.282939
v -0.168759 -0.036389 0.271610
v -0.537759 -0.152289 0.284623
v -0.107033 -0.130374 0.207238
v -0.127949 0.039358 -0.206221
v -0.093864 -0.144780 0.058304
v -0.093862 -0.143681 -0.244647
v -0.000172 -0.144926 0.058304
v -0.000150 -0.130541 0.207238
v -0.000170 -0.143827 -0.244647
v 0.000115 0.039158 -0.206221
v -0.079733 0.026128 -0.154660
v -0.095820 -0.145005 0.306973
v -0.069594 0.209965 -0.044184
v -0.069691 0.147600 0.213473
v 0.000381 0.209855 -0.044184
v 0.000095 0.026003 -0.154660
v 0.000284 0.147491 0.213473
v -0.000172 -0.145154 0.306973
vt 0.431528 0.801239
vt 0.433870 0.755014
vt 0.469045 0.828062
vt 0.435108 0.666263
vt 0.469045 0.757577
vt 0.244774 0.724090
vt 0.244773 0.865416
vt 0.231126 0.823065
vt 0.243262 0.953454
vt 0.234047 1.000000
vt 0.223701 0.886673
vt 0.389242 0.242580
vt 0.410711 0.241990
vt 0.410711 0.321478
vt 0.416795 0.382186
vt 0.421916 0.277760
vt 0.426354 0.277756
vt 0.120114 0.675419
vt 0.120114 0.595221
vt 0.123574 0.594427
vt 0.111198 0.681741
vt 0.119885 0.666467
vt 0.120114 0.809296
vt 0.050602 0.730075
vt 0.071594 0.809394
vt 0.009305 0.741448
vt 0.029601 0.601211
vt 0.071594 0.594427
vt 0.410496 0.759919
vt 0.431528 0.879205
vt 0.389532 0.872745
vt 0.480104 0.812407
vt 0.480104 0.666263
vt 0.485308 0.666675
vt 0.376727 0.782541
vt 0.369329 0.735013
vt 0.114896 0.596233
vt 0.426354 0.394968
vt 0.426354 0.432228
vt 0.420913 0.432233
vt 0.284239 0.836615
vt 0.311279 0.967346
vt 0.247115 0.967346
vt 0.170949 0.879082
vt 0.163980 0.724090
vt 0.223701 0.742188
vt 0.253456 0.827650
vt 0.253456 0.583763
vt 0.311279 0.685278
vt 0.465538 0.424634
vt 0.484000 0.425221
vt 0.484000 0.582537
vt 0.048401 0.809394
vt 0.067115 0.809394
vt 0.067829 0.935601
vt 0.369329 0.342835
vt 0.369329 0.583763
vt 0.253456 0.582313
vt 0.150189 0.928124
vt 0.123919 0.697615
vt 0.163564 0.697615
vt 0.009305 0.594427
vt 0.009305 0.347076
vt 0.123919 0.344466
vt 0.097815 0.594427
vt 0.110833 0.594427
vt 0.111198 0.835496
vt 0.389242 0.000480
vt 0.428143 0.000000
vt 0.428143 0.241510
vt 0.465538 0.666254
vt 0.452730 0.666263
vt 0.452730 0.424643
vt 0.346714 0.796276
vt 0.356738 0.583763
vt 0.365840 0.584456
vt 0.477948 0.166361
vt 0.477948 0.000135
vt 0.486789 0.000000
vt 0.428143 0.158010
vt 0.446849 0.128963
vt 0.452029 0.355526
vt 0.261650 0.046146
vt 0.318076 0.000000
vt 0.318076 0.298876
vt 0.281987 0.341385
vt 0.166851 0.339920
vt 0.163980 0.174226
vt 0.009305 0.167900
vt 0.012362 0.002116
vt 0.115873 0.000000
vt 0.469045 0.968541
vt 0.469045 0.666263
vt 0.480104 0.667859
vt 0.096934 0.284588
vt 0.163980 0.045163
vt 0.441060 0.002460
vt 0.365840 0.824109
vt 0.360043 0.902532
vt 0.348884 0.901682
vt 0.128232 0.461094
vt 0.163597 0.344481
vt 0.364876 0.110840
vt 0.389242 0.338638
vt 0.318076 0.338638
vt 0.369329 0.666263
vt 0.377179 0.342750
vt 0.416795 0.341385
vt 0.128816 0.697602
vt 0.163012 0.461107
vt 0.107195 0.981044
vt 0.072141 0.981044
vt 0.071594 0.835496
vt 0.480083 0.203631
vt 0.481895 0.365934
vt 0.452029 0.365934
vt 0.163980 0.492904
vt 0.253456 0.341385
vt 0.253456 0.724090
vt 0.346714 0.588414
vt 0.346714 0.945466
vt 0.317139 0.941584
vt 0.477948 0.201506
vt 0.452029 0.203631
vt 0.452029 0.002125
vt 0.426440 0.432495
vt 0.452730 0.432233
vt 0.452730 0.665904
vt 0.568472 0.198761
vt 0.537504 0.126859
vt 0.530955 0.171938
vt 0.566130 0.244986
vt 0.530955 0.242423
vt 0.755226 0.275910
vt 0.776299 0.245253
vt 0.768874 0.176935
vt 0.776299 0.113327
vt 0.765953 0.000000
vt 0.756738 0.046546
vt 0.610758 0.757420
vt 0.610298 0.681470
vt 0.589289 0.678522
vt 0.583205 0.617814
vt 0.573646 0.605032
vt 0.573645 0.722244
vt 0.879886 0.324581
vt 0.876426 0.325375
vt 0.876426 0.405573
vt 0.879886 0.190704
vt 0.880115 0.333533
vt 0.888802 0.318259
vt 0.990695 0.258552
vt 0.928406 0.190606
vt 0.949398 0.269925
vt 0.928406 0.405573
vt 0.970399 0.398789
vt 0.589504 0.240081
vt 0.623273 0.217459
vt 0.610468 0.127255
vt 0.519896 0.187593
vt 0.514692 0.187181
vt 0.514692 0.333325
vt 0.568472 0.333737
vt 0.630671 0.264987
vt 0.879886 0.405573
vt 0.885104 0.403767
vt 0.579087 0.567767
vt 0.573646 0.567772
vt 0.752885 0.032654
vt 0.688721 0.032654
vt 0.715761 0.163385
vt 0.829051 0.120918
vt 0.776299 0.116794
vt 0.776299 0.257812
vt 0.746544 0.172350
vt 0.688721 0.171778
vt 0.688721 0.314722
vt 0.516000 0.417463
vt 0.516000 0.574779
vt 0.534462 0.575366
vt 0.951599 0.190606
vt 0.990695 0.064399
vt 0.932171 0.064399
vt 0.746544 0.417687
vt 0.630671 0.416237
vt 0.630671 0.657165
vt 0.836436 0.302385
vt 0.876081 0.302385
vt 0.849811 0.071876
vt 0.876081 0.655534
vt 0.990695 0.652924
vt 0.990695 0.405573
vt 0.902185 0.405573
vt 0.928406 0.164504
vt 0.888802 0.164504
vt 0.571857 0.758490
vt 0.571857 1.000000
vt 0.610758 0.999520
vt 0.547270 0.575357
vt 0.547270 0.333737
vt 0.534462 0.333746
vt 0.653286 0.203724
vt 0.634160 0.175891
vt 0.634160 0.415544
vt 0.522052 0.833639
vt 0.513211 0.833774
vt 0.513211 1.000000
vt 0.547971 0.644474
vt 0.553151 0.871037
vt 0.571857 0.841990
vt 0.681924 0.701124
vt 0.681924 1.000000
vt 0.738350 0.953854
vt 0.718013 0.658615
vt 0.836020 0.825774
vt 0.884127 1.000000
vt 0.987638 0.997884
vt 0.990695 0.832100
vt 0.530955 0.031459
vt 0.519896 0.029863
vt 0.519896 0.332141
vt 0.903066 0.715412
vt 0.836020 0.655534
vt 0.836020 0.954836
vt 0.547971 1.000000
vt 0.558940 0.997540
vt 0.651116 0.098318
vt 0.639957 0.097468
vt 0.836403 0.655519
vt 0.871768 0.538906
vt 0.635124 0.889160
vt 0.653021 1.000000
vt 0.681924 0.661362
vt 0.630671 0.333737
vt 0.583205 0.335372
vt 0.583205 0.658615
vt 0.871184 0.302398
vt 0.836988 0.538893
vt 0.892805 0.018956
vt 0.880492 0.164504
vt 0.547971 0.634066
vt 0.518105 0.634066
vt 0.519917 0.796369
vt 0.746544 0.275910
vt 0.746544 0.658615
vt 0.836020 0.507096
vt 0.653286 0.411586
vt 0.688721 0.416237
vt 0.682860 0.058416
vt 0.547971 0.997875
vt 0.547971 0.796369
vt 0.522052 0.798494
vt 0.573560 0.567505
vt 0.583205 0.333737
vt 0.547270 0.334096
vt 0.462496 0.873141
vt 0.223701 0.754747
vt 0.243262 0.865416
vt 0.389702 0.318530
vt 0.123574 0.674625
vt 0.115858 0.810769
vt 0.014200 0.707622
vt 0.485308 0.812819
vt 0.431528 0.666263
vt 0.120114 0.594427
vt 0.266047 0.828222
vt 0.223701 0.883206
vt 0.311279 0.828222
vt 0.465538 0.581950
vt 0.009305 0.935601
vt 0.163221 0.928124
vt 0.123919 0.591817
vt 0.389242 0.241990
vt 0.486789 0.166226
vt 0.443082 0.357532
vt 0.480104 0.970137
vt 0.163980 0.344466
vt 0.452029 0.000000
vt 0.346979 0.000000
vt 0.416795 0.664628
vt 0.119508 0.835496
vt 0.453903 0.203631
vt 0.175229 0.696367
vt 0.311279 0.583763
vt 0.477948 0.000000
vt 0.416795 0.666263
vt 0.564892 0.333737
vt 0.755226 0.134584
vt 0.756738 0.134584
vt 0.589289 0.758010
vt 0.578084 0.722240
vt 0.879886 0.404779
vt 0.884142 0.189231
vt 0.985800 0.292378
vt 0.568472 0.120795
vt 0.519896 0.333737
vt 0.733953 0.171778
vt 0.836020 0.275910
vt 0.746544 0.416237
vt 0.534462 0.418050
vt 0.932885 0.190606
vt 0.836779 0.071876
vt 0.876081 0.408183
vt 0.889167 0.405573
vt 0.610758 0.758010
vt 0.643262 0.416237
vt 0.522052 0.999865
vt 0.556918 0.642468
vt 0.833149 0.660080
vt 0.530955 0.333737
vt 0.610758 0.661362
vt 0.622820 0.657251
vt 0.927859 0.018956
vt 0.546097 0.796369
vt 0.824771 0.303633
vt 0.653286 0.054534
vt 0.522052 1.000000
vt 0.547270 0.567767
vn 0.776100 0.386000 -0.498700
vn 0.955200 0.209700 -0.208700
vn -0.306200 -0.952000 0.000000
vn 0.116600 0.990300 -0.075900
vn -0.273200 -0.400000 0.874900
vn -0.969200 0.246200 0.000000
vn -0.431100 -0.234700 -0.871200
vn 0.997500 0.046600 -0.052200
vn -0.301200 -0.838600 0.453900
vn -0.133400 -0.975200 0.176900
vn 0.102100 0.964600 -0.243200
vn -0.050400 0.378000 0.924400
vn 0.398200 0.896800 -0.192900
vn 0.588000 -0.589400 -0.554000
vn 0.550200 0.506500 -0.663900
vn 0.836000 0.546400 -0.050400
vn 0.001600 -1.000000 0.000000
vn -0.001600 0.995800 -0.091900
vn 0.000400 -0.250800 0.968000
vn -0.939700 0.341900 0.000000
vn 0.000000 0.000000 -1.000000
vn 0.992300 -0.123600 0.000000
vn -0.000000 0.000000 1.000000
vn -0.341900 -0.939700 0.000000
vn 0.341900 0.939700 0.000000
vn -0.971600 0.232400 -0.044800
vn 0.008900 0.056100 -0.998400
vn 0.843500 -0.169800 -0.509600
vn -0.286800 -0.935900 -0.204500
vn -0.229400 -0.969300 -0.088300
vn 0.229900 0.973200 -0.009600
vn -0.049700 -0.046400 0.997700
vn 0.211900 0.964200 0.159600
vn 0.936300 -0.084700 -0.340900
vn -0.866500 0.177700 0.466500
vn 0.001600 -0.995400 0.096100
vn 0.983100 -0.182900 -0.000700
vn -0.001400 0.925100 0.379700
vn 0.001600 -1.000000 -0.003600
vn -0.000300 0.205500 -0.978700
vn -0.000800 0.515100 -0.857200
vn 0.996100 0.088300 -0.002000
vn 0.001500 -0.937600 -0.347600
vn -0.001500 0.971900 0.235300
vn -0.000500 0.304300 0.952600
vn -0.810900 0.383000 -0.442400
vn -0.943200 0.203900 -0.262400
vn -0.077900 -0.990900 0.109700
vn -0.116600 0.990300 -0.075900
vn -0.443200 -0.632800 0.635000
vn 0.969200 0.246200 -0.000000
vn 0.431100 -0.234700 -0.871200
vn -0.997500 0.046600 -0.052200
vn 0.301200 -0.838600 0.453900
vn 0.133400 -0.975200 0.176900
vn -0.358900 0.820300 -0.445300
vn 0.050400 0.378000 0.924400
vn -0.296100 0.897500 -0.326800
vn -0.626200 -0.418800 -0.657600
vn -0.550200 0.506500 -0.663900
vn -0.812000 0.583600 0.000000
vn -0.001600 -1.000000 0.000000
vn 0.001600 0.995800 -0.091900
vn -0.000400 -0.250800 0.968000
vn 0.939700 0.341900 0.000000
vn -0.992300 -0.123600 0.000000
vn 0.341900 -0.939700 0.000000
vn -0.341900 0.939700 0.000000
vn 0.988600 0.146100 -0.036100
vn -0.008900 0.056100 -0.998400
vn -0.843500 -0.169800 -0.509600
vn 0.286800 -0.935900 -0.204500
vn 0.206000 -0.976000 -0.070900
vn -0.229900 0.973200 -0.009600
vn 0.049700 -0.046400 0.997700
vn -0.277200 0.915400 0.291900
vn -0.916700 -0.196500 -0.347900
vn 0.866500 0.177700 0.466500
vn -0.001600 -0.995400 0.096100
vn -0.962700 -0.263800 -0.059600
vn 0.001400 0.925100 0.379700
vn -0.001600 -1.000000 -0.003600
vn 0.000300 0.205500 -0.978700
vn 0.000800 0.515100 -0.857200
vn -0.996100 0.088300 -0.002000
vn -0.001500 -0.937600 -0.347600
vn 0.001500 0.971900 0.235300
vn 0.000500 0.304300 0.952600
vn 0.810900 0.383000 -0.442400
vn 0.943200 0.203900 -0.262400
vn 0.077900 -0.990900 0.109700
vn 0.032200 0.993600 -0.107900
vn 0.443200 -0.632800 0.635000
vn 0.972100 -0.231500 0.038900
vn -0.367400 -0.860100 0.353800
vn 0.358900 0.820300 -0.445300
vn 0.296100 0.897500 -0.326800
vn 0.626200 -0.418800 -0.657600
vn -0.001100 0.723200 -0.690700
vn 0.812000 0.583600 0.000000
vn -0.988600 0.146100 -0.036100
vn -0.195900 -0.980300 0.025200
vn -0.206000 -0.976000 -0.070900
vn 0.194100 0.980200 -0.039300
vn 0.277200 0.915400 0.291900
vn 0.916700 -0.196500 -0.347900
vn -0.834300 0.373000 0.406100
vn 0.962700 -0.263800 -0.059600
vn 0.998800 0.048300 0.011300
vn -0.776100 0.386000 -0.498700
vn -0.955200 0.209700 -0.208700
vn 0.306200 -0.952000 0.000000
vn -0.032200 0.993600 -0.107900
vn 0.273200 -0.400000 0.874900
vn -0.972100 -0.231500 0.038900
vn 0.367400 -0.860100 0.353800
vn -0.102100 0.964600 -0.243200
vn -0.398200 0.896800 -0.192900
vn -0.588000 -0.589400 -0.554000
vn 0.001100 0.723200 -0.690700
vn -0.836000 0.546400 -0.050400
vn 0.971600 0.232400 -0.044800
vn 0.195900 -0.980300 0.025200
vn 0.229400 -0.969300 -0.088300
vn -0.194100 0.980200 -0.039300
vn -0.211900 0.964200 0.159600
vn -0.936300 -0.084700 -0.340900
vn 0.834300 0.373000 0.406100
vn -0.983100 -0.182900 -0.000700
vn -0.998800 0.048300 0.011300
s off
f 67/1/1 3/2/1 1/3/1
f 3/2/2 4/4/2 2/5/2
f 6/6/3 5/7/3 1/8/3
f 3/9/4 67/10/4 69/11/4
f 4/12/5 69/13/5 6/14/5
f 11/15/6 12/16/6 8/17/6
f 12/18/7 13/19/7 9/20/7
f 14/21/8 10/22/8 9/23/8
f 10/24/9 16/25/9 15/26/9
f 8/27/10 9/28/10 10/24/10
f 14/29/11 13/30/11 12/31/11
f 18/32/12 17/33/12 15/34/12
f 14/29/13 11/35/13 17/36/13
f 10/22/14 14/21/14 18/37/14
f 7/38/6 15/39/6 17/40/6
f 21/41/15 19/42/15 24/43/15
f 21/44/16 22/45/16 20/46/16
f 26/47/17 24/48/17 19/49/17
f 21/50/18 23/51/18 25/52/18
f 22/53/19 25/54/19 26/55/19
f 32/56/20 28/57/20 27/58/20
f 33/59/21 29/60/21 28/61/21
f 34/62/22 30/63/22 29/64/22
f 34/65/23 31/66/23 27/67/23
f 28/68/24 29/69/24 30/70/24
f 33/71/25 32/72/25 31/73/25
f 39/74/26 40/75/26 36/76/26
f 40/77/27 41/78/27 37/79/27
f 42/80/28 38/81/28 37/82/28
f 38/83/29 44/84/29 43/85/29
f 35/86/30 36/87/30 37/88/30
f 41/89/31 40/90/31 39/91/31
f 46/92/32 45/93/32 43/94/32
f 42/95/33 39/91/33 45/96/33
f 38/81/34 42/80/34 46/97/34
f 35/98/35 43/99/35 45/100/35
f 49/101/36 47/64/36 52/102/36
f 49/103/37 50/104/37 48/105/37
f 54/106/38 52/107/38 47/108/38
f 50/109/39 49/101/39 51/110/39
f 50/111/40 53/112/40 54/113/40
f 57/114/41 55/115/41 60/116/41
f 58/117/42 56/118/42 55/119/42
f 62/120/43 60/121/43 55/122/43
f 57/123/44 59/124/44 61/125/44
f 58/126/45 61/127/45 62/128/45
f 67/129/46 68/130/46 63/131/46
f 65/132/47 63/131/47 64/133/47
f 70/134/48 64/135/48 63/136/48
f 69/137/49 67/138/49 65/139/49
f 66/140/50 64/141/50 70/142/50
f 75/143/51 71/144/51 72/145/51
f 76/146/52 72/147/52 73/148/52
f 73/149/53 74/150/53 78/151/53
f 79/152/54 80/153/54 74/154/54
f 74/154/55 73/155/55 72/156/55
f 78/157/56 75/158/56 76/159/56
f 82/160/57 80/161/57 79/162/57
f 78/157/58 82/163/58 81/164/58
f 74/150/59 80/165/59 82/166/59
f 81/167/51 79/168/51 71/144/51
f 88/169/60 83/170/60 85/171/60
f 85/172/61 83/173/61 84/174/61
f 90/175/62 84/176/62 83/177/62
f 89/178/63 87/179/63 85/180/63
f 86/181/64 84/182/64 90/183/64
f 91/184/65 92/185/65 96/186/65
f 92/187/21 93/188/21 97/189/21
f 93/190/66 94/191/66 98/192/66
f 98/193/23 94/194/23 91/195/23
f 94/196/67 93/197/67 92/198/67
f 95/199/68 96/200/68 97/201/68
f 103/202/69 99/203/69 100/204/69
f 104/205/70 100/206/70 101/207/70
f 101/208/71 102/209/71 106/210/71
f 107/211/72 108/212/72 102/213/72
f 99/214/73 102/213/73 101/215/73
f 103/216/74 104/217/74 105/218/74
f 110/219/75 108/220/75 107/221/75
f 106/222/76 110/223/76 109/224/76
f 102/209/77 108/225/77 110/226/77
f 109/227/78 107/228/78 99/203/78
f 116/229/79 111/190/79 113/230/79
f 113/231/80 111/232/80 112/233/80
f 118/234/81 112/235/81 111/236/81
f 114/237/82 117/187/82 115/238/82
f 114/239/83 112/240/83 118/194/83
f 124/241/84 119/242/84 121/243/84
f 119/244/85 120/245/85 122/246/85
f 126/247/86 120/248/86 119/249/86
f 125/250/87 123/251/87 121/252/87
f 122/253/88 120/254/88 126/255/88
f 5/256/89 67/1/89 1/3/89
f 1/3/90 3/2/90 2/5/90
f 2/257/91 6/6/91 1/8/91
f 4/258/92 3/9/92 69/11/92
f 2/259/93 4/12/93 6/14/93
f 7/38/6 11/15/6 8/17/6
f 8/260/7 12/18/7 9/20/7
f 13/261/94 14/21/94 9/23/94
f 7/262/95 10/24/95 15/26/95
f 7/262/95 8/27/95 10/24/95
f 11/35/96 14/29/96 12/31/96
f 16/263/12 18/32/12 15/34/12
f 18/264/97 14/29/97 17/36/97
f 16/265/98 10/22/98 18/37/98
f 11/15/6 7/38/6 17/40/6
f 23/266/99 21/41/99 24/43/99
f 19/267/100 21/44/100 20/46/100
f 20/268/17 26/47/17 19/49/17
f 22/269/18 21/50/18 25/52/18
f 20/270/19 22/53/19 26/55/19
f 31/118/20 32/56/20 27/58/20
f 32/271/21 33/59/21 28/61/21
f 33/272/22 34/62/22 29/64/22
f 30/113/23 34/65/23 27/67/23
f 27/273/24 28/68/24 30/70/24
f 34/50/25 33/71/25 31/73/25
f 35/98/101 39/74/101 36/76/101
f 36/274/27 40/77/27 37/79/27
f 41/275/28 42/80/28 37/82/28
f 35/86/102 38/83/102 43/85/102
f 38/83/103 35/86/103 37/88/103
f 42/95/104 41/89/104 39/91/104
f 44/276/32 46/92/32 43/94/32
f 46/277/105 42/95/105 45/96/105
f 44/278/106 38/81/106 46/97/106
f 39/74/107 35/98/107 45/100/107
f 51/110/36 49/101/36 52/102/36
f 47/279/108 49/103/108 48/105/108
f 48/280/38 54/106/38 47/108/38
f 53/61/39 50/109/39 51/110/39
f 48/281/40 50/111/40 54/113/40
f 59/282/41 57/114/41 60/116/41
f 57/283/109 58/117/109 55/119/109
f 56/284/43 62/120/43 55/122/43
f 58/285/44 57/123/44 61/125/44
f 56/286/45 58/126/45 62/128/45
f 65/132/110 67/129/110 63/131/110
f 66/287/111 65/132/111 64/133/111
f 68/288/112 70/134/112 63/136/112
f 66/289/113 69/137/113 65/139/113
f 69/290/114 66/140/114 70/142/114
f 76/291/51 75/143/51 72/145/51
f 77/292/52 76/146/52 73/148/52
f 77/293/115 73/149/115 78/151/115
f 71/294/116 79/152/116 74/154/116
f 71/294/116 74/154/116 72/156/116
f 77/295/117 78/157/117 76/159/117
f 81/296/57 82/160/57 79/162/57
f 75/158/118 78/157/118 81/164/118
f 78/151/119 74/150/119 82/166/119
f 75/143/51 81/167/51 71/144/51
f 87/297/120 88/169/120 85/171/120
f 86/298/121 85/172/121 84/174/121
f 88/299/62 90/175/62 83/177/62
f 86/300/63 89/178/63 85/180/63
f 89/301/64 86/181/64 90/183/64
f 95/245/65 91/184/65 96/186/65
f 96/302/21 92/187/21 97/189/21
f 97/303/66 93/190/66 98/192/66
f 95/304/23 98/193/23 91/195/23
f 91/305/67 94/196/67 92/198/67
f 98/180/68 95/199/68 97/201/68
f 104/306/122 103/202/122 100/204/122
f 105/307/70 104/205/70 101/207/70
f 105/308/71 101/208/71 106/210/71
f 99/214/123 107/211/123 102/213/123
f 100/309/124 99/214/124 101/215/124
f 106/222/125 103/216/125 105/218/125
f 109/310/75 110/219/75 107/221/75
f 103/216/126 106/222/126 109/224/126
f 106/210/127 102/209/127 110/226/127
f 103/202/128 109/227/128 99/203/128
f 115/238/79 116/229/79 113/230/79
f 114/311/129 113/231/129 112/233/129
f 116/312/81 118/234/81 111/236/81
f 113/230/82 114/237/82 115/238/82
f 117/313/83 114/239/83 118/194/83
f 123/314/84 124/241/84 121/243/84
f 121/315/130 119/244/130 122/246/130
f 124/316/86 126/247/86 119/249/86
f 122/317/87 125/250/87 121/252/87
f 125/318/88 122/253/88 126/255/88
