<?xml version="1.0" encoding="UTF-8" standalone="no"?>
<!-- Created with Inkscape (http://www.inkscape.org/) -->

<svg
   xmlns:dc="http://purl.org/dc/elements/1.1/"
   xmlns:cc="http://creativecommons.org/ns#"
   xmlns:rdf="http://www.w3.org/1999/02/22-rdf-syntax-ns#"
   xmlns:svg="http://www.w3.org/2000/svg"
   xmlns="http://www.w3.org/2000/svg"
   xmlns:sodipodi="http://sodipodi.sourceforge.net/DTD/sodipodi-0.dtd"
   xmlns:inkscape="http://www.inkscape.org/namespaces/inkscape"
   width="512"
   height="512"
   viewBox="0 0 512.00001 512.00001"
   id="svg4158"
   version="1.1"
   inkscape:version="0.91 r13725"
   sodipodi:docname="shippy_diffuse.svg"
   inkscape:export-filename="A:\obbs\ludum_dare_38_assets\shippy_diffuse.png"
   inkscape:export-xdpi="90"
   inkscape:export-ydpi="90">
  <defs
     id="defs4160" />
  <sodipodi:namedview
     id="base"
     pagecolor="#ffffff"
     bordercolor="#666666"
     borderopacity="1.0"
     inkscape:pageopacity="0.0"
     inkscape:pageshadow="2"
     inkscape:zoom="0.98994949"
     inkscape:cx="27.041947"
     inkscape:cy="251.77759"
     inkscape:document-units="px"
     inkscape:current-layer="layer1"
     showgrid="false"
     units="px"
     inkscape:window-width="944"
     inkscape:window-height="1001"
     inkscape:window-x="960"
     inkscape:window-y="0"
     inkscape:window-maximized="0" />
  <metadata
     id="metadata4163">
    <rdf:RDF>
      <cc:Work
         rdf:about="">
        <dc:format>image/svg+xml</dc:format>
        <dc:type
           rdf:resource="http://purl.org/dc/dcmitype/StillImage" />
        <dc:title />
      </cc:Work>
    </rdf:RDF>
  </metadata>
  <g
     inkscape:label="Layer 1"
     inkscape:groupmode="layer"
     id="layer1"
     transform="translate(0,-540.36216)">
    <rect
       style="fill:#353c50;fill-opacity:1;stroke:#000000;stroke-width:0.92398357;stroke-linejoin:miter;stroke-miterlimit:4;stroke-dasharray:none;stroke-opacity:1"
       id="rect4706"
       width="511.07602"
       height="511.07602"
       x="0.46199179"
       y="540.8241" />
    <rect
       style="fill:#53ab41;fill-opacity:1;stroke:#000000;stroke-width:2.00224257;stroke-linejoin:miter;stroke-miterlimit:4;stroke-dasharray:none;stroke-opacity:1"
       id="rect4710"
       width="192.91658"
       height="35.33279"
       x="-172.89088"
       y="524.97302"
       transform="matrix(0.94784496,-0.31873176,0.31873176,0.94784496,0,0)" />
    <rect
       transform="matrix(0.94784496,-0.31873176,0.31873176,0.94784496,0,0)"
       y="556.20532"
       x="-200.44514"
       height="35.33279"
       width="192.91658"
       id="rect4718"
       style="fill:#53ab41;fill-opacity:1;stroke:#000000;stroke-width:2.00224257;stroke-linejoin:miter;stroke-miterlimit:4;stroke-dasharray:none;stroke-opacity:1" />
    <rect
       style="fill:#53ab41;fill-opacity:1;stroke:#000000;stroke-width:2.00224257;stroke-linejoin:miter;stroke-miterlimit:4;stroke-dasharray:none;stroke-opacity:1"
       id="rect4720"
       width="192.91658"
       height="35.33279"
       x="-120.6449"
       y="578.77679"
       transform="matrix(0.94784496,-0.31873176,0.31873176,0.94784496,0,0)" />
    <rect
       transform="matrix(0.94784496,-0.31873176,0.31873176,0.94784496,0,0)"
       y="590.3269"
       x="-222.57657"
       height="35.33279"
       width="192.91658"
       id="rect4722"
       style="fill:#53ab41;fill-opacity:1;stroke:#000000;stroke-width:2.00224257;stroke-linejoin:miter;stroke-miterlimit:4;stroke-dasharray:none;stroke-opacity:1" />
    <rect
       transform="matrix(0.94784496,-0.31873176,0.31873176,0.94784496,0,0)"
       y="524.97302"
       x="-172.89088"
       height="35.33279"
       width="192.91658"
       id="rect4724"
       style="fill:#53ab41;fill-opacity:1;stroke:#000000;stroke-width:2.00224257;stroke-linejoin:miter;stroke-miterlimit:4;stroke-dasharray:none;stroke-opacity:1" />
    <rect
       style="fill:#53ab41;fill-opacity:1;stroke:#000000;stroke-width:2.00224257;stroke-linejoin:miter;stroke-miterlimit:4;stroke-dasharray:none;stroke-opacity:1"
       id="rect4726"
       width="192.91658"
       height="35.33279"
       x="-200.44514"
       y="556.20532"
       transform="matrix(0.94784496,-0.31873176,0.31873176,0.94784496,0,0)" />
    <rect
       transform="matrix(0.94784496,-0.31873176,0.31873176,0.94784496,0,0)"
       y="578.77679"
       x="-120.6449"
       height="35.33279"
       width="192.91658"
       id="rect4728"
       style="fill:#53ab41;fill-opacity:1;stroke:#000000;stroke-width:2.00224257;stroke-linejoin:miter;stroke-miterlimit:4;stroke-dasharray:none;stroke-opacity:1" />
    <rect
       style="fill:#53ab41;fill-opacity:1;stroke:#000000;stroke-width:2.00224257;stroke-linejoin:miter;stroke-miterlimit:4;stroke-dasharray:none;stroke-opacity:1"
       id="rect4730"
       width="192.91658"
       height="35.33279"
       x="-222.57657"
       y="590.3269"
       transform="matrix(0.94784496,-0.31873176,0.31873176,0.94784496,0,0)" />
    <rect
       style="fill:#53ab41;fill-opacity:1;stroke:#000000;stroke-width:2.00224257;stroke-linejoin:miter;stroke-miterlimit:4;stroke-dasharray:none;stroke-opacity:1"
       id="rect4742"
       width="192.91658"
       height="35.33279"
       x="-211.15587"
       y="499.31683"
       transform="matrix(0.94784496,-0.31873176,0.31873176,0.94784496,0,0)" />
    <rect
       transform="matrix(0.94784496,-0.31873176,0.31873176,0.94784496,0,0)"
       y="635.42914"
       x="-199.37659"
       height="35.33279"
       width="192.91658"
       id="rect4760"
       style="fill:#53ab41;fill-opacity:1;stroke:#000000;stroke-width:2.00224257;stroke-linejoin:miter;stroke-miterlimit:4;stroke-dasharray:none;stroke-opacity:1" />
    <rect
       style="fill:#53ab41;fill-opacity:1;stroke:#000000;stroke-width:2.00224257;stroke-linejoin:miter;stroke-miterlimit:4;stroke-dasharray:none;stroke-opacity:1"
       id="rect4762"
       width="192.91658"
       height="35.33279"
       x="-226.93085"
       y="666.66144"
       transform="matrix(0.94784496,-0.31873176,0.31873176,0.94784496,0,0)" />
    <rect
       transform="matrix(0.94784496,-0.31873176,0.31873176,0.94784496,0,0)"
       y="689.23291"
       x="-147.1306"
       height="35.33279"
       width="192.91658"
       id="rect4764"
       style="fill:#53ab41;fill-opacity:1;stroke:#000000;stroke-width:2.00224257;stroke-linejoin:miter;stroke-miterlimit:4;stroke-dasharray:none;stroke-opacity:1" />
    <rect
       style="fill:#53ab41;fill-opacity:1;stroke:#000000;stroke-width:2.00224257;stroke-linejoin:miter;stroke-miterlimit:4;stroke-dasharray:none;stroke-opacity:1"
       id="rect4766"
       width="192.91658"
       height="35.33279"
       x="-249.06227"
       y="700.78302"
       transform="matrix(0.94784496,-0.31873176,0.31873176,0.94784496,0,0)" />
    <rect
       style="fill:#53ab41;fill-opacity:1;stroke:#000000;stroke-width:2.00224257;stroke-linejoin:miter;stroke-miterlimit:4;stroke-dasharray:none;stroke-opacity:1"
       id="rect4768"
       width="192.91658"
       height="35.33279"
       x="-199.37659"
       y="635.42914"
       transform="matrix(0.94784496,-0.31873176,0.31873176,0.94784496,0,0)" />
    <rect
       transform="matrix(0.94784496,-0.31873176,0.31873176,0.94784496,0,0)"
       y="666.66144"
       x="-226.93085"
       height="35.33279"
       width="192.91658"
       id="rect4770"
       style="fill:#53ab41;fill-opacity:1;stroke:#000000;stroke-width:2.00224257;stroke-linejoin:miter;stroke-miterlimit:4;stroke-dasharray:none;stroke-opacity:1" />
    <rect
       style="fill:#53ab41;fill-opacity:1;stroke:#000000;stroke-width:2.00224257;stroke-linejoin:miter;stroke-miterlimit:4;stroke-dasharray:none;stroke-opacity:1"
       id="rect4772"
       width="192.91658"
       height="35.33279"
       x="-147.1306"
       y="689.23291"
       transform="matrix(0.94784496,-0.31873176,0.31873176,0.94784496,0,0)" />
    <rect
       transform="matrix(0.94784496,-0.31873176,0.31873176,0.94784496,0,0)"
       y="700.78302"
       x="-249.06227"
       height="35.33279"
       width="192.91658"
       id="rect4774"
       style="fill:#53ab41;fill-opacity:1;stroke:#000000;stroke-width:2.00224257;stroke-linejoin:miter;stroke-miterlimit:4;stroke-dasharray:none;stroke-opacity:1" />
    <rect
       transform="matrix(0.94784496,-0.31873176,0.31873176,0.94784496,0,0)"
       y="609.77295"
       x="-237.64157"
       height="35.33279"
       width="192.91658"
       id="rect4776"
       style="fill:#53ab41;fill-opacity:1;stroke:#000000;stroke-width:2.00224257;stroke-linejoin:miter;stroke-miterlimit:4;stroke-dasharray:none;stroke-opacity:1" />
    <rect
       style="fill:#53ab41;fill-opacity:1;stroke:#000000;stroke-width:2.00224257;stroke-linejoin:miter;stroke-miterlimit:4;stroke-dasharray:none;stroke-opacity:1"
       id="rect4778"
       width="192.91658"
       height="35.33279"
       x="-173.17624"
       y="754.01031"
       transform="matrix(0.94784496,-0.31873176,0.31873176,0.94784496,0,0)" />
    <rect
       transform="matrix(0.94784496,-0.31873176,0.31873176,0.94784496,0,0)"
       y="785.24261"
       x="-200.7305"
       height="35.33279"
       width="192.91658"
       id="rect4780"
       style="fill:#53ab41;fill-opacity:1;stroke:#000000;stroke-width:2.00224257;stroke-linejoin:miter;stroke-miterlimit:4;stroke-dasharray:none;stroke-opacity:1" />
    <rect
       style="fill:#53ab41;fill-opacity:1;stroke:#000000;stroke-width:2.00224257;stroke-linejoin:miter;stroke-miterlimit:4;stroke-dasharray:none;stroke-opacity:1"
       id="rect4782"
       width="192.91658"
       height="35.33279"
       x="-120.93026"
       y="807.81409"
       transform="matrix(0.94784496,-0.31873176,0.31873176,0.94784496,0,0)" />
    <rect
       transform="matrix(0.94784496,-0.31873176,0.31873176,0.94784496,0,0)"
       y="819.3642"
       x="-222.86192"
       height="35.33279"
       width="192.91658"
       id="rect4784"
       style="fill:#53ab41;fill-opacity:1;stroke:#000000;stroke-width:2.00224257;stroke-linejoin:miter;stroke-miterlimit:4;stroke-dasharray:none;stroke-opacity:1" />
    <rect
       transform="matrix(0.94784496,-0.31873176,0.31873176,0.94784496,0,0)"
       y="754.01031"
       x="-173.17624"
       height="35.33279"
       width="192.91658"
       id="rect4786"
       style="fill:#53ab41;fill-opacity:1;stroke:#000000;stroke-width:2.00224257;stroke-linejoin:miter;stroke-miterlimit:4;stroke-dasharray:none;stroke-opacity:1" />
    <rect
       style="fill:#53ab41;fill-opacity:1;stroke:#000000;stroke-width:2.00224257;stroke-linejoin:miter;stroke-miterlimit:4;stroke-dasharray:none;stroke-opacity:1"
       id="rect4788"
       width="192.91658"
       height="35.33279"
       x="-200.7305"
       y="785.24261"
       transform="matrix(0.94784496,-0.31873176,0.31873176,0.94784496,0,0)" />
    <rect
       transform="matrix(0.94784496,-0.31873176,0.31873176,0.94784496,0,0)"
       y="807.81409"
       x="-120.93026"
       height="35.33279"
       width="192.91658"
       id="rect4790"
       style="fill:#53ab41;fill-opacity:1;stroke:#000000;stroke-width:2.00224257;stroke-linejoin:miter;stroke-miterlimit:4;stroke-dasharray:none;stroke-opacity:1" />
    <rect
       style="fill:#53ab41;fill-opacity:1;stroke:#000000;stroke-width:2.00224257;stroke-linejoin:miter;stroke-miterlimit:4;stroke-dasharray:none;stroke-opacity:1"
       id="rect4792"
       width="192.91658"
       height="35.33279"
       x="-222.86192"
       y="819.3642"
       transform="matrix(0.94784496,-0.31873176,0.31873176,0.94784496,0,0)" />
    <rect
       style="fill:#53ab41;fill-opacity:1;stroke:#000000;stroke-width:2.00224257;stroke-linejoin:miter;stroke-miterlimit:4;stroke-dasharray:none;stroke-opacity:1"
       id="rect4794"
       width="192.91658"
       height="35.33279"
       x="-211.44122"
       y="728.35413"
       transform="matrix(0.94784496,-0.31873176,0.31873176,0.94784496,0,0)" />
    <rect
       transform="matrix(0.94784496,-0.31873176,0.31873176,0.94784496,0,0)"
       y="872.63513"
       x="-251.43269"
       height="35.33279"
       width="192.91658"
       id="rect4796"
       style="fill:#53ab41;fill-opacity:1;stroke:#000000;stroke-width:2.00224257;stroke-linejoin:miter;stroke-miterlimit:4;stroke-dasharray:none;stroke-opacity:1" />
    <rect
       style="fill:#53ab41;fill-opacity:1;stroke:#000000;stroke-width:2.00224257;stroke-linejoin:miter;stroke-miterlimit:4;stroke-dasharray:none;stroke-opacity:1"
       id="rect4798"
       width="192.91658"
       height="35.33279"
       x="-278.98697"
       y="903.86743"
       transform="matrix(0.94784496,-0.31873176,0.31873176,0.94784496,0,0)" />
    <rect
       transform="matrix(0.94784496,-0.31873176,0.31873176,0.94784496,0,0)"
       y="926.4389"
       x="-199.18672"
       height="35.33279"
       width="192.91658"
       id="rect4800"
       style="fill:#53ab41;fill-opacity:1;stroke:#000000;stroke-width:2.00224257;stroke-linejoin:miter;stroke-miterlimit:4;stroke-dasharray:none;stroke-opacity:1" />
    <rect
       style="fill:#53ab41;fill-opacity:1;stroke:#000000;stroke-width:2.00224257;stroke-linejoin:miter;stroke-miterlimit:4;stroke-dasharray:none;stroke-opacity:1"
       id="rect4802"
       width="192.91658"
       height="35.33279"
       x="-301.11838"
       y="937.98901"
       transform="matrix(0.94784496,-0.31873176,0.31873176,0.94784496,0,0)" />
    <rect
       style="fill:#53ab41;fill-opacity:1;stroke:#000000;stroke-width:2.00224257;stroke-linejoin:miter;stroke-miterlimit:4;stroke-dasharray:none;stroke-opacity:1"
       id="rect4804"
       width="192.91658"
       height="35.33279"
       x="-251.43269"
       y="872.63513"
       transform="matrix(0.94784496,-0.31873176,0.31873176,0.94784496,0,0)" />
    <rect
       transform="matrix(0.94784496,-0.31873176,0.31873176,0.94784496,0,0)"
       y="903.86743"
       x="-278.98697"
       height="35.33279"
       width="192.91658"
       id="rect4806"
       style="fill:#53ab41;fill-opacity:1;stroke:#000000;stroke-width:2.00224257;stroke-linejoin:miter;stroke-miterlimit:4;stroke-dasharray:none;stroke-opacity:1" />
    <rect
       style="fill:#53ab41;fill-opacity:1;stroke:#000000;stroke-width:2.00224257;stroke-linejoin:miter;stroke-miterlimit:4;stroke-dasharray:none;stroke-opacity:1"
       id="rect4808"
       width="192.91658"
       height="35.33279"
       x="-199.18672"
       y="926.4389"
       transform="matrix(0.94784496,-0.31873176,0.31873176,0.94784496,0,0)" />
    <rect
       transform="matrix(0.94784496,-0.31873176,0.31873176,0.94784496,0,0)"
       y="937.98901"
       x="-301.11838"
       height="35.33279"
       width="192.91658"
       id="rect4810"
       style="fill:#53ab41;fill-opacity:1;stroke:#000000;stroke-width:2.00224257;stroke-linejoin:miter;stroke-miterlimit:4;stroke-dasharray:none;stroke-opacity:1" />
    <rect
       transform="matrix(0.94784496,-0.31873176,0.31873176,0.94784496,0,0)"
       y="846.97894"
       x="-289.69769"
       height="35.33279"
       width="192.91658"
       id="rect4812"
       style="fill:#53ab41;fill-opacity:1;stroke:#000000;stroke-width:2.00224257;stroke-linejoin:miter;stroke-miterlimit:4;stroke-dasharray:none;stroke-opacity:1" />
    <rect
       style="fill:#53ab41;fill-opacity:1;stroke:#000000;stroke-width:2.00224257;stroke-linejoin:miter;stroke-miterlimit:4;stroke-dasharray:none;stroke-opacity:1"
       id="rect4814"
       width="192.91658"
       height="35.33279"
       x="-15.46681"
       y="668.49756"
       transform="matrix(0.94784496,-0.31873176,0.31873176,0.94784496,0,0)" />
    <rect
       transform="matrix(0.94784496,-0.31873176,0.31873176,0.94784496,0,0)"
       y="699.72986"
       x="-43.021088"
       height="35.33279"
       width="192.91658"
       id="rect4816"
       style="fill:#53ab41;fill-opacity:1;stroke:#000000;stroke-width:2.00224257;stroke-linejoin:miter;stroke-miterlimit:4;stroke-dasharray:none;stroke-opacity:1" />
    <rect
       style="fill:#53ab41;fill-opacity:1;stroke:#000000;stroke-width:2.00224257;stroke-linejoin:miter;stroke-miterlimit:4;stroke-dasharray:none;stroke-opacity:1"
       id="rect4818"
       width="192.91658"
       height="35.33279"
       x="36.77916"
       y="722.30133"
       transform="matrix(0.94784496,-0.31873176,0.31873176,0.94784496,0,0)" />
    <rect
       transform="matrix(0.94784496,-0.31873176,0.31873176,0.94784496,0,0)"
       y="733.85144"
       x="-65.152496"
       height="35.33279"
       width="192.91658"
       id="rect4820"
       style="fill:#53ab41;fill-opacity:1;stroke:#000000;stroke-width:2.00224257;stroke-linejoin:miter;stroke-miterlimit:4;stroke-dasharray:none;stroke-opacity:1" />
    <rect
       transform="matrix(0.94784496,-0.31873176,0.31873176,0.94784496,0,0)"
       y="668.49756"
       x="-15.46681"
       height="35.33279"
       width="192.91658"
       id="rect4822"
       style="fill:#53ab41;fill-opacity:1;stroke:#000000;stroke-width:2.00224257;stroke-linejoin:miter;stroke-miterlimit:4;stroke-dasharray:none;stroke-opacity:1" />
    <rect
       style="fill:#53ab41;fill-opacity:1;stroke:#000000;stroke-width:2.00224257;stroke-linejoin:miter;stroke-miterlimit:4;stroke-dasharray:none;stroke-opacity:1"
       id="rect4824"
       width="192.91658"
       height="35.33279"
       x="-43.021088"
       y="699.72986"
       transform="matrix(0.94784496,-0.31873176,0.31873176,0.94784496,0,0)" />
    <rect
       transform="matrix(0.94784496,-0.31873176,0.31873176,0.94784496,0,0)"
       y="722.30133"
       x="36.77916"
       height="35.33279"
       width="192.91658"
       id="rect4826"
       style="fill:#53ab41;fill-opacity:1;stroke:#000000;stroke-width:2.00224257;stroke-linejoin:miter;stroke-miterlimit:4;stroke-dasharray:none;stroke-opacity:1" />
    <rect
       style="fill:#53ab41;fill-opacity:1;stroke:#000000;stroke-width:2.00224257;stroke-linejoin:miter;stroke-miterlimit:4;stroke-dasharray:none;stroke-opacity:1"
       id="rect4828"
       width="192.91658"
       height="35.33279"
       x="-65.152496"
       y="733.85144"
       transform="matrix(0.94784496,-0.31873176,0.31873176,0.94784496,0,0)" />
    <rect
       style="fill:#53ab41;fill-opacity:1;stroke:#000000;stroke-width:2.00224257;stroke-linejoin:miter;stroke-miterlimit:4;stroke-dasharray:none;stroke-opacity:1"
       id="rect4830"
       width="192.91658"
       height="35.33279"
       x="-53.731812"
       y="642.84137"
       transform="matrix(0.94784496,-0.31873176,0.31873176,0.94784496,0,0)" />
    <rect
       transform="matrix(0.94784496,-0.31873176,0.31873176,0.94784496,0,0)"
       y="833.02881"
       x="-7.9152884"
       height="35.33279"
       width="192.91658"
       id="rect4832"
       style="fill:#53ab41;fill-opacity:1;stroke:#000000;stroke-width:2.00224257;stroke-linejoin:miter;stroke-miterlimit:4;stroke-dasharray:none;stroke-opacity:1" />
    <rect
       style="fill:#53ab41;fill-opacity:1;stroke:#000000;stroke-width:2.00224257;stroke-linejoin:miter;stroke-miterlimit:4;stroke-dasharray:none;stroke-opacity:1"
       id="rect4834"
       width="192.91658"
       height="35.33279"
       x="-35.469566"
       y="864.26111"
       transform="matrix(0.94784496,-0.31873176,0.31873176,0.94784496,0,0)" />
    <rect
       transform="matrix(0.94784496,-0.31873176,0.31873176,0.94784496,0,0)"
       y="886.83258"
       x="44.330681"
       height="35.33279"
       width="192.91658"
       id="rect4836"
       style="fill:#53ab41;fill-opacity:1;stroke:#000000;stroke-width:2.00224257;stroke-linejoin:miter;stroke-miterlimit:4;stroke-dasharray:none;stroke-opacity:1" />
    <rect
       style="fill:#53ab41;fill-opacity:1;stroke:#000000;stroke-width:2.00224257;stroke-linejoin:miter;stroke-miterlimit:4;stroke-dasharray:none;stroke-opacity:1"
       id="rect4838"
       width="192.91658"
       height="35.33279"
       x="-57.600975"
       y="898.38269"
       transform="matrix(0.94784496,-0.31873176,0.31873176,0.94784496,0,0)" />
    <rect
       style="fill:#53ab41;fill-opacity:1;stroke:#000000;stroke-width:2.00224257;stroke-linejoin:miter;stroke-miterlimit:4;stroke-dasharray:none;stroke-opacity:1"
       id="rect4840"
       width="192.91658"
       height="35.33279"
       x="-7.9152884"
       y="833.02881"
       transform="matrix(0.94784496,-0.31873176,0.31873176,0.94784496,0,0)" />
    <rect
       transform="matrix(0.94784496,-0.31873176,0.31873176,0.94784496,0,0)"
       y="864.26111"
       x="-35.469566"
       height="35.33279"
       width="192.91658"
       id="rect4842"
       style="fill:#53ab41;fill-opacity:1;stroke:#000000;stroke-width:2.00224257;stroke-linejoin:miter;stroke-miterlimit:4;stroke-dasharray:none;stroke-opacity:1" />
    <rect
       style="fill:#53ab41;fill-opacity:1;stroke:#000000;stroke-width:2.00224257;stroke-linejoin:miter;stroke-miterlimit:4;stroke-dasharray:none;stroke-opacity:1"
       id="rect4844"
       width="192.91658"
       height="35.33279"
       x="44.330681"
       y="886.83258"
       transform="matrix(0.94784496,-0.31873176,0.31873176,0.94784496,0,0)" />
    <rect
       transform="matrix(0.94784496,-0.31873176,0.31873176,0.94784496,0,0)"
       y="898.38269"
       x="-57.600975"
       height="35.33279"
       width="192.91658"
       id="rect4846"
       style="fill:#53ab41;fill-opacity:1;stroke:#000000;stroke-width:2.00224257;stroke-linejoin:miter;stroke-miterlimit:4;stroke-dasharray:none;stroke-opacity:1" />
    <rect
       transform="matrix(0.94784496,-0.31873176,0.31873176,0.94784496,0,0)"
       y="807.37262"
       x="-46.18029"
       height="35.33279"
       width="192.91658"
       id="rect4848"
       style="fill:#53ab41;fill-opacity:1;stroke:#000000;stroke-width:2.00224257;stroke-linejoin:miter;stroke-miterlimit:4;stroke-dasharray:none;stroke-opacity:1" />
    <rect
       style="fill:#53ab41;fill-opacity:1;stroke:#000000;stroke-width:2.00224257;stroke-linejoin:miter;stroke-miterlimit:4;stroke-dasharray:none;stroke-opacity:1"
       id="rect4850"
       width="192.91658"
       height="35.33279"
       x="-111.17557"
       y="984.80927"
       transform="matrix(0.94784496,-0.31873176,0.31873176,0.94784496,0,0)" />
    <rect
       transform="matrix(0.94784496,-0.31873176,0.31873176,0.94784496,0,0)"
       y="1016.0416"
       x="-138.72984"
       height="35.33279"
       width="192.91658"
       id="rect4852"
       style="fill:#53ab41;fill-opacity:1;stroke:#000000;stroke-width:2.00224257;stroke-linejoin:miter;stroke-miterlimit:4;stroke-dasharray:none;stroke-opacity:1" />
    <rect
       style="fill:#53ab41;fill-opacity:1;stroke:#000000;stroke-width:2.00224257;stroke-linejoin:miter;stroke-miterlimit:4;stroke-dasharray:none;stroke-opacity:1"
       id="rect4854"
       width="192.91658"
       height="35.33279"
       x="-58.9296"
       y="1038.613"
       transform="matrix(0.94784496,-0.31873176,0.31873176,0.94784496,0,0)" />
    <rect
       transform="matrix(0.94784496,-0.31873176,0.31873176,0.94784496,0,0)"
       y="1050.1632"
       x="-160.86125"
       height="35.33279"
       width="192.91658"
       id="rect4856"
       style="fill:#53ab41;fill-opacity:1;stroke:#000000;stroke-width:2.00224257;stroke-linejoin:miter;stroke-miterlimit:4;stroke-dasharray:none;stroke-opacity:1" />
    <rect
       transform="matrix(0.94784496,-0.31873176,0.31873176,0.94784496,0,0)"
       y="984.80927"
       x="-111.17557"
       height="35.33279"
       width="192.91658"
       id="rect4858"
       style="fill:#53ab41;fill-opacity:1;stroke:#000000;stroke-width:2.00224257;stroke-linejoin:miter;stroke-miterlimit:4;stroke-dasharray:none;stroke-opacity:1" />
    <rect
       style="fill:#53ab41;fill-opacity:1;stroke:#000000;stroke-width:2.00224257;stroke-linejoin:miter;stroke-miterlimit:4;stroke-dasharray:none;stroke-opacity:1"
       id="rect4860"
       width="192.91658"
       height="35.33279"
       x="-138.72984"
       y="1016.0416"
       transform="matrix(0.94784496,-0.31873176,0.31873176,0.94784496,0,0)" />
    <rect
       transform="matrix(0.94784496,-0.31873176,0.31873176,0.94784496,0,0)"
       y="1038.613"
       x="-58.9296"
       height="35.33279"
       width="192.91658"
       id="rect4862"
       style="fill:#53ab41;fill-opacity:1;stroke:#000000;stroke-width:2.00224257;stroke-linejoin:miter;stroke-miterlimit:4;stroke-dasharray:none;stroke-opacity:1" />
    <rect
       style="fill:#53ab41;fill-opacity:1;stroke:#000000;stroke-width:2.00224257;stroke-linejoin:miter;stroke-miterlimit:4;stroke-dasharray:none;stroke-opacity:1"
       id="rect4864"
       width="192.91658"
       height="35.33279"
       x="-160.86125"
       y="1050.1632"
       transform="matrix(0.94784496,-0.31873176,0.31873176,0.94784496,0,0)" />
    <rect
       style="fill:#53ab41;fill-opacity:1;stroke:#000000;stroke-width:2.00224257;stroke-linejoin:miter;stroke-miterlimit:4;stroke-dasharray:none;stroke-opacity:1"
       id="rect4866"
       width="192.91658"
       height="35.33279"
       x="-149.44057"
       y="959.15308"
       transform="matrix(0.94784496,-0.31873176,0.31873176,0.94784496,0,0)" />
  </g>
</svg>
